<svg width="186" height="118" viewBox="0 0 186 118" fill="none" xmlns="http://www.w3.org/2000/svg">
    <g clip-path="url(#clip0)">
        <path d="M13.1856 86.6968L19.4986 100.481L25.9247 86.6624C26.3858 85.6712 27.1161 84.8337 28.03 84.2482C28.9439 83.6627 30.0036 83.3535 31.0848 83.3568C32.062 83.3569 33.0227 83.6123 33.8743 84.0984C34.7258 84.5845 35.4393 85.2848 35.946 86.1318C36.4527 86.9789 36.7355 87.944 36.767 88.9341C36.7986 89.9241 36.5779 90.9057 36.1262 91.7842L24.8678 113.657C24.3876 114.594 23.6631 115.379 22.7731 115.926C21.8831 116.474 20.8619 116.763 19.8208 116.763H18.973C17.923 116.768 16.8921 116.478 15.9944 115.926C15.0967 115.374 14.3671 114.581 13.8864 113.635L2.82589 91.7612C2.37774 90.8802 2.16135 89.8968 2.19764 88.9062C2.23394 87.9156 2.52168 86.9512 3.03307 86.1062C3.54446 85.2613 4.26221 84.5643 5.11697 84.0827C5.97172 83.6011 6.93457 83.3511 7.91249 83.3568H8.06509C9.14303 83.3648 10.1965 83.683 11.103 84.2743C12.0096 84.8656 12.7317 85.7057 13.1856 86.6968Z" fill="#0F0216"/>
        <path d="M69.2512 83.3568H78.9383C79.2052 83.3568 79.461 83.4643 79.6497 83.6555C79.8384 83.8467 79.9444 84.1061 79.9444 84.3766V115.726C79.9444 115.996 79.8384 116.255 79.6497 116.447C79.461 116.638 79.2052 116.745 78.9383 116.745H69.2512C68.9854 116.744 68.7309 116.636 68.5435 116.445C68.356 116.254 68.2508 115.995 68.2508 115.726V115.559C68.2526 115.365 68.1988 115.174 68.096 115.01C67.9931 114.845 67.8455 114.715 67.671 114.634C67.4966 114.552 67.3027 114.524 67.1127 114.552C66.9228 114.58 66.7449 114.664 66.6005 114.792C64.253 116.818 61.2442 117.885 58.1624 117.782C55.8905 117.81 53.6381 117.355 51.5498 116.447C49.5604 115.578 47.7678 114.305 46.2824 112.706C44.7602 111.068 43.5697 109.143 42.7783 107.04C41.9298 104.774 41.5062 102.366 41.5292 99.9422C41.5183 97.6185 41.9323 95.3128 42.75 93.1419C43.5164 91.0613 44.6673 89.148 46.1411 87.5046C47.6479 85.8406 49.4835 84.5169 51.5284 83.6197C53.5733 82.7224 55.7817 82.2717 58.0098 82.297C61.1206 82.218 64.163 83.2298 66.6231 85.1614C66.7719 85.2742 66.9487 85.3428 67.1338 85.3594C67.3188 85.3761 67.5048 85.3402 67.6708 85.2557C67.8369 85.1712 67.9765 85.0416 68.0739 84.8813C68.1714 84.7209 68.2228 84.5362 68.2226 84.3479C68.23 84.0785 68.3423 83.8229 68.5351 83.6372C68.7278 83.4515 68.9853 83.3507 69.2512 83.3568ZM53.6014 99.9709C53.5962 101.999 54.3682 103.951 55.7547 105.413C56.4304 106.114 57.2401 106.668 58.1341 107.04C59.0805 107.434 60.0956 107.629 61.1183 107.613C62.1205 107.625 63.1147 107.43 64.0402 107.04C64.9343 106.668 65.744 106.114 66.4196 105.413C67.0891 104.71 67.6323 103.894 68.0248 103.002C68.4338 102.082 68.642 101.083 68.6351 100.074C68.6397 99.0541 68.4317 98.0448 68.0248 97.1121C67.6368 96.2085 67.0933 95.3821 66.4196 94.6716C65.7428 93.9708 64.9335 93.4155 64.0402 93.0388C63.1139 92.6516 62.1203 92.4568 61.1183 92.4659C60.0958 92.4535 59.0813 92.6483 58.1341 93.0388C57.2408 93.4155 56.4316 93.9708 55.7547 94.6716C55.094 95.3616 54.5617 96.1671 54.1835 97.0491C53.7897 97.9669 53.5914 98.9586 53.6014 99.9594V99.9709Z" fill="#0F0216"/>
        <path d="M93.6555 83.3568C95.1979 83.3568 96.6772 83.9779 97.7678 85.0835C98.8585 86.189 99.4712 87.6885 99.4712 89.2519V102.177C99.4712 106.301 101.44 108.364 105.377 108.364C109.315 108.364 111.285 106.301 111.289 102.177V89.2519C111.289 87.6885 111.902 86.189 112.992 85.0835C114.083 83.9779 115.562 83.3568 117.105 83.3568C118.646 83.3583 120.124 83.9801 121.213 85.0855C122.303 86.1909 122.915 87.6894 122.915 89.2519V104.457C122.915 108.971 121.449 112.357 118.518 114.614C115.586 116.871 111.206 118.006 105.377 118.017C99.556 118.017 95.1777 116.889 92.2426 114.631C89.3074 112.374 87.8417 108.988 87.8455 104.474V89.2519C87.8455 87.6894 88.4574 86.1909 89.5468 85.0855C90.6363 83.9801 92.1141 83.3583 93.6555 83.3568Z" fill="#0F0216"/>
        <path d="M142.425 68.6104V110.867C142.425 112.43 141.813 113.928 140.723 115.034C139.634 116.139 138.156 116.761 136.615 116.763C135.072 116.763 133.593 116.141 132.502 115.036C131.412 113.93 130.799 112.431 130.799 110.867V68.6104C130.799 67.0469 131.412 65.5474 132.502 64.4419C133.593 63.3363 135.072 62.7152 136.615 62.7152C138.156 62.7168 139.634 63.3385 140.723 64.4439C141.813 65.5493 142.425 67.0479 142.425 68.6104Z" fill="#0F0216"/>
        <path d="M163.382 93.1878V110.867C163.382 112.43 162.77 113.928 161.68 115.034C160.591 116.139 159.113 116.761 157.572 116.763C156.029 116.763 154.55 116.141 153.459 115.036C152.369 113.93 151.756 112.431 151.756 110.867V93.1878C150.734 93.1878 149.753 92.7761 149.03 92.0434C148.307 91.3106 147.901 90.3168 147.901 89.2806V87.264C147.901 86.2277 148.307 85.2339 149.03 84.5012C149.753 83.7685 150.734 83.3568 151.756 83.3568V79.2205C151.757 77.658 152.371 76.16 153.461 75.0557C154.552 73.9514 156.03 73.3311 157.572 73.3311C159.112 73.3311 160.59 73.9516 161.68 75.056C162.769 76.1605 163.382 77.6585 163.382 79.2205V83.3568H166.162C167.184 83.3583 168.164 83.7705 168.886 84.5029C169.609 85.2353 170.015 86.2282 170.017 87.264V89.2806C170.017 90.3168 169.611 91.3106 168.888 92.0434C168.165 92.7761 167.185 93.1878 166.162 93.1878H163.382Z" fill="#0F0216"/>
        <path d="M174.369 77.5705C174.368 76.7843 174.519 76.0057 174.815 75.2789C175.102 74.5734 175.525 73.9327 176.058 73.3941C177.157 72.2927 178.639 71.675 180.184 71.675C181.729 71.675 183.212 72.2927 184.31 73.3941C184.844 73.9327 185.266 74.5734 185.553 75.2789C186.147 76.7474 186.147 78.3936 185.553 79.8621C185.266 80.5676 184.844 81.2083 184.31 81.7469C183.212 82.8483 181.729 83.466 180.184 83.466C178.639 83.466 177.157 82.8483 176.058 81.7469C175.525 81.2083 175.102 80.5676 174.815 79.8621C174.519 79.1355 174.367 78.3567 174.369 77.5705Z" fill="#0F0216"/>
        <path d="M24.1387 25.9294C23.7167 26.7692 23.0218 27.4357 22.1714 27.8166C21.321 28.1975 20.367 28.2695 19.4704 28.0205C18.391 27.7098 17.2748 27.5499 16.1528 27.545C15.2468 27.5073 14.349 27.7319 13.5642 28.1924C13.2592 28.3695 13.0063 28.6258 12.8315 28.935C12.6566 29.2441 12.5662 29.5949 12.5695 29.9512C12.5559 30.2741 12.6099 30.5962 12.7278 30.8965C12.8916 31.1915 13.1399 31.4293 13.4399 31.5782C13.9454 31.8453 14.4859 32.0382 15.045 32.1511C15.7458 32.3287 16.684 32.5464 17.837 32.8042C21.0397 33.4688 23.4341 34.6337 25.0204 36.2989C25.8161 37.1556 26.4362 38.1639 26.8446 39.2654C27.2531 40.3668 27.4418 41.5395 27.3998 42.7154C27.4357 44.5378 27.0485 46.3432 26.2694 47.986C25.5139 49.5335 24.4151 50.8826 23.0592 51.9276C21.5668 53.0627 19.8808 53.9095 18.0857 54.4254C16.0169 55.0241 13.873 55.3136 11.7218 55.2848C8.58957 55.2726 5.48889 54.6502 2.58849 53.4515C2.06034 53.2384 1.58179 52.916 1.18336 52.5051C0.784916 52.0941 0.47533 51.6034 0.274332 51.0644C0.0733347 50.5254 -0.0146638 49.9499 0.0159469 49.3745C0.0465576 48.7991 0.195106 48.2365 0.452121 47.7225L0.859049 46.9319C1.34356 45.982 2.17265 45.2595 3.17192 44.9165C4.17118 44.5735 5.26272 44.6368 6.21693 45.0929C8.03677 45.9803 10.0248 46.4572 12.0439 46.4908C12.9791 46.5338 13.9046 46.2838 14.6946 45.7747C15.0062 45.5864 15.2646 45.3197 15.4448 45.0006C15.625 44.6814 15.7209 44.3206 15.7232 43.9528C15.7319 43.5873 15.6783 43.2229 15.565 42.8758C15.4212 42.553 15.1849 42.2815 14.8868 42.0966C14.4204 41.8006 13.9112 41.5803 13.3777 41.4435C12.7165 41.2488 11.8461 41.0425 10.7779 40.8248C7.16832 40.0915 4.64574 38.9953 3.21019 37.5364C1.77464 36.0774 1.05875 34.0684 1.06251 31.5095C1.03547 29.7733 1.38467 28.0523 2.08549 26.468C2.76565 24.9827 3.77767 23.6783 5.04137 22.6582C6.42857 21.5631 8.0092 20.7464 9.69843 20.252C11.6688 19.6642 13.7147 19.3784 15.7684 19.4041C17.6669 19.3946 19.5612 19.5866 21.4202 19.977C22.0312 20.1122 22.6031 20.3884 23.0918 20.784C23.5804 21.1795 23.9725 21.684 24.2376 22.2581C24.5027 22.8321 24.6338 23.4604 24.6205 24.0942C24.6073 24.7279 24.4502 25.35 24.1613 25.9122L24.1387 25.9294Z" fill="#0F0216"/>
        <path d="M32.023 37.0494C32.0061 34.655 32.5098 32.2863 33.4981 30.1116C34.4731 27.9791 35.8719 26.0736 37.6069 24.5143C39.4482 22.8826 41.5739 21.6139 43.8747 20.7733C46.4105 19.8421 49.0903 19.3784 51.7872 19.4041C54.4664 19.3804 57.129 19.8322 59.6545 20.7389C61.9651 21.5634 64.1013 22.823 65.9506 24.4513C67.7125 26.0183 69.1248 27.9479 70.0933 30.1116C71.0954 32.3971 71.5986 34.875 71.5684 37.3759C71.5994 39.8156 71.1105 42.2334 70.1351 44.4639C69.1597 46.6945 67.7208 48.6854 65.9167 50.3005C64.0701 51.9396 61.9202 53.1899 59.5923 53.9785C57.0234 54.8649 54.3256 55.3065 51.612 55.2848C48.946 55.3118 46.2956 54.8698 43.7787 53.9785C41.4813 53.1799 39.3667 51.9192 37.5617 50.2719C35.8222 48.6582 34.4326 46.6956 33.4811 44.5085C32.4802 42.1546 31.9833 39.6123 32.023 37.0494ZM44.293 37.1811C44.2799 38.2444 44.4879 39.2984 44.9034 40.2748C45.2872 41.1807 45.8312 42.0078 46.5085 42.7153C47.181 43.4172 47.9891 43.9711 48.8822 44.3424C50.7563 45.1214 52.8577 45.1214 54.7318 44.3424C55.6241 43.9697 56.4319 43.416 57.1055 42.7153C57.7811 42.0063 58.3248 41.1796 58.7106 40.2748C59.1308 39.3193 59.3465 38.2845 59.3436 37.2384C59.3482 36.2186 59.1402 35.2093 58.7332 34.2765C58.3332 33.3703 57.774 32.5453 57.0829 31.8417C56.4093 31.1411 55.6015 30.5874 54.7092 30.2147C53.7819 29.8253 52.7881 29.6248 51.7844 29.6248C50.7807 29.6248 49.7868 29.8253 48.8596 30.2147C47.9665 30.586 47.1584 31.1398 46.4859 31.8417C45.8141 32.5408 45.2705 33.3556 44.8807 34.2479C44.4795 35.1716 44.2791 36.172 44.293 37.1811Z" fill="#0F0216"/>
        <path d="M103.134 24.9841C103.14 25.6135 103.014 26.237 102.765 26.8135C102.516 27.39 102.149 27.9065 101.689 28.3288C101.228 28.751 100.685 29.0696 100.094 29.2633C99.5035 29.457 98.8789 29.5216 98.2617 29.4527C97.8535 29.3957 97.4418 29.3669 97.0296 29.3668C95.965 29.3539 94.9078 29.5484 93.9155 29.9397C92.9696 30.318 92.1071 30.8827 91.3779 31.6011C90.6496 32.3225 90.0729 33.1858 89.6823 34.139C89.2632 35.1825 89.0556 36.3009 89.0719 37.4275C89.0525 38.5402 89.2563 39.6453 89.671 40.6758C90.0679 41.6256 90.6438 42.4877 91.3666 43.2138C92.0891 43.9407 92.9534 44.5066 93.9042 44.8752C95.252 45.3889 96.7017 45.5677 98.1318 45.3965C98.754 45.3103 99.3873 45.3593 99.9894 45.5404C100.592 45.7214 101.149 46.0303 101.624 46.4465C102.099 46.8626 102.482 47.3766 102.746 47.9542C103.01 48.5318 103.15 49.1598 103.156 49.7964V50.0656C103.161 51.0356 102.852 51.9806 102.278 52.7563C101.703 53.5321 100.894 54.0961 99.9742 54.3624C98.3408 54.8392 96.6496 55.0822 94.9498 55.0842C92.6229 55.0953 90.3135 54.678 88.1337 53.8525C86.0181 53.0582 84.0754 51.8537 82.4141 50.3062C80.7471 48.7451 79.4023 46.864 78.4579 44.772C77.4514 42.5122 76.9478 40.0556 76.9828 37.5764C76.9517 35.0837 77.4329 32.6117 78.3957 30.3178C79.2923 28.1795 80.6052 26.2466 82.2559 24.6346C83.9304 23.0159 85.9079 21.7536 88.0716 20.9223C90.3753 20.0221 92.8256 19.5693 95.2946 19.5874C96.8194 19.5857 98.3385 19.7781 99.816 20.1603C100.767 20.4081 101.609 20.9692 102.211 21.7553C102.812 22.5414 103.139 23.508 103.139 24.5029L103.134 24.9841Z" fill="#0F0216"/>
        <path d="M108.978 7.81435C108.972 6.9307 109.145 6.05525 109.486 5.24204C109.821 4.45178 110.303 3.7341 110.905 3.12804C111.504 2.52589 112.212 2.04726 112.99 1.71871C113.794 1.36945 114.659 1.18936 115.534 1.18936C116.408 1.18936 117.273 1.36945 118.077 1.71871C118.857 2.05408 119.566 2.54059 120.162 3.15096C120.763 3.75855 121.244 4.47584 121.581 5.26495C121.922 6.07817 122.095 6.95361 122.09 7.83727C122.095 8.72093 121.922 9.59637 121.581 10.4096C121.244 11.1987 120.763 11.916 120.162 12.5236C119.564 13.1322 118.856 13.6184 118.077 13.9558C117.272 14.3015 116.407 14.4797 115.534 14.4797C114.66 14.4797 113.795 14.3015 112.99 13.9558C111.419 13.2699 110.165 12.0014 109.486 10.4096C109.142 9.58928 108.969 8.70572 108.978 7.81435ZM121.372 26.5367V48.1522C121.372 49.7147 120.76 51.2132 119.671 52.3186C118.581 53.424 117.103 54.0458 115.562 54.0473C114.02 54.0473 112.54 53.4262 111.45 52.3207C110.359 51.2151 109.746 49.7157 109.746 48.1522V26.5367C109.744 25.7611 109.893 24.9927 110.184 24.2754C110.475 23.5582 110.903 22.9063 111.444 22.3571C111.984 21.8079 112.626 21.3721 113.332 21.0748C114.039 20.7774 114.797 20.6244 115.562 20.6244C116.327 20.6251 117.084 20.7787 117.79 21.0764C118.496 21.3741 119.137 21.81 119.677 22.3591C120.216 22.9083 120.644 23.5599 120.935 24.2768C121.226 24.9936 121.374 25.7616 121.372 26.5367Z" fill="#0F0216"/>
        <path d="M155.78 20.6244H165.467C165.732 20.6244 165.987 20.7312 166.174 20.9214C166.362 21.1115 166.467 21.3695 166.467 21.6384V53.0275C166.467 53.297 166.362 53.5555 166.175 53.7466C165.987 53.9377 165.733 54.0458 165.467 54.0473H155.78C155.514 54.0458 155.26 53.9377 155.072 53.7466C154.885 53.5555 154.78 53.297 154.78 53.0275V52.8614C154.781 52.6668 154.728 52.4759 154.625 52.3116C154.522 52.1473 154.374 52.0167 154.2 51.9356C154.025 51.8544 153.831 51.8262 153.641 51.8542C153.451 51.8823 153.274 51.9655 153.129 52.0937C150.78 54.1216 147.769 55.188 144.685 55.0843C142.414 55.1115 140.161 54.6568 138.073 53.7494C136.088 52.8781 134.299 51.6051 132.817 50.0084C131.296 48.3691 130.105 46.4444 129.313 44.3424C128.457 42.0755 128.029 39.6656 128.052 37.2384C128.044 34.9131 128.458 32.6061 129.273 30.4324C130.041 28.3543 131.192 26.4432 132.664 24.8008C134.169 23.1345 136.004 21.8093 138.05 20.9119C140.095 20.0144 142.304 19.5651 144.533 19.5932C147.646 19.5134 150.69 20.5252 153.152 22.4577C153.301 22.5707 153.478 22.6393 153.664 22.6558C153.849 22.6722 154.036 22.6358 154.202 22.5506C154.368 22.4655 154.508 22.335 154.605 22.1738C154.702 22.0126 154.753 21.8272 154.751 21.6384C154.751 21.5028 154.778 21.3686 154.83 21.2436C154.882 21.1187 154.958 21.0056 155.054 20.9111C155.15 20.8165 155.264 20.7424 155.388 20.6932C155.513 20.6439 155.646 20.6205 155.78 20.6244ZM140.13 37.2384C140.115 38.277 140.307 39.3079 140.695 40.2691C141.063 41.1755 141.596 42.0035 142.267 42.7096C142.953 43.417 143.777 43.9729 144.685 44.3424C145.632 44.7335 146.647 44.9283 147.67 44.9153C148.672 44.9239 149.665 44.7292 150.592 44.3424C151.486 43.9698 152.295 43.4162 152.971 42.7154C153.64 42.0122 154.184 41.196 154.576 40.3035C154.985 39.3836 155.193 38.3849 155.186 37.3759C155.191 36.3561 154.983 35.3468 154.576 34.4141C154.188 33.5105 153.645 32.6841 152.971 31.9735C152.285 31.2784 151.468 30.7309 150.569 30.3637C149.642 29.9769 148.649 29.7821 147.647 29.7908C146.632 29.7808 145.625 29.9755 144.685 30.3637C143.792 30.7403 142.983 31.2956 142.306 31.9964C141.643 32.686 141.109 33.4915 140.729 34.374C140.333 35.2755 140.129 36.2516 140.13 37.2384Z" fill="#0F0216"/>
        <path d="M186 5.89513V55.9722C186.001 56.7469 185.851 57.5141 185.559 58.23C185.267 58.9459 184.839 59.5964 184.299 60.1444C183.759 60.6924 183.117 61.1272 182.411 61.4238C181.705 61.7204 180.949 61.8731 180.184 61.8731C179.42 61.8731 178.663 61.7204 177.957 61.4238C177.252 61.1272 176.61 60.6924 176.07 60.1444C175.53 59.5964 175.102 58.9459 174.81 58.23C174.518 57.5141 174.368 56.7469 174.369 55.9722V5.89513C174.369 4.33164 174.981 2.8322 176.072 1.72664C177.163 0.621092 178.642 0 180.184 0V0C181.727 0 183.206 0.621092 184.297 1.72664C185.387 2.8322 186 4.33164 186 5.89513Z" fill="#0F0216"/>
    </g>
    <defs>
        <clipPath id="clip0">
            <rect width="186" height="118" fill="white"/>
        </clipPath>
    </defs>
</svg>
